PathFileType	4	(X/Y/Z)	C:/Users/opensim2020/Desktop/walking_exp_matlab/subject06_walking12_straigt_03.trc																																																																																																																																														
DataRate	CameraRate	NumFrames	NumMarkers	Units	OrigDataRate	OrigDataStartFrame	OrigNumFrames																																																																																																																																										
100	100	8	48	mm	100	2187	184																																																																																																																																										
Frame#	Time	LFHD			RFHD			LBHD			RBHD			C7			T10			CLAV			STRN			RBAK			LSHO			LUPA			LELB			LFRM			LWRA			LWRB			LFIN			RSHO			RUPA			RELB			RFRM			RWRA			RWRB			RFIN			LASI			RASI			LPSI			RPSI			LTHI			LKNE			LTIB			LANK			LHEE			LTOE			RTHI			RKNE			RTIB			RANK			RHEE			RTOE			*39			*40			*41			*42			*43			*44			*45			*46			*47		
		X1	Y1	Z1	X2	Y2	Z2	X3	Y3	Z3	X4	Y4	Z4	X5	Y5	Z5	X6	Y6	Z6	X7	Y7	Z7	X8	Y8	Z8	X9	Y9	Z9	X10	Y10	Z10	X11	Y11	Z11	X12	Y12	Z12	X13	Y13	Z13	X14	Y14	Z14	X15	Y15	Z15	X16	Y16	Z16	X17	Y17	Z17	X18	Y18	Z18	X19	Y19	Z19	X20	Y20	Z20	X21	Y21	Z21	X22	Y22	Z22	X23	Y23	Z23	X24	Y24	Z24	X25	Y25	Z25	X26	Y26	Z26	X27	Y27	Z27	X28	Y28	Z28	X29	Y29	Z29	X30	Y30	Z30	X31	Y31	Z31	X32	Y32	Z32	X33	Y33	Z33	X34	Y34	Z34	X35	Y35	Z35	X36	Y36	Z36	X37	Y37	Z37	X38	Y38	Z38	X39	Y39	Z39	X40	Y40	Z40	X41	Y41	Z41	X42	Y42	Z42	X43	Y43	Z43	X44	Y44	Z44	X45	Y45	Z45	X46	Y46	Z46	X47	Y47	Z47	X48	Y48	Z48
																																																																																																																																																	
116	1.15	360.97134	1666.53125	-1084.95007	348.55695	1653.08838	-954.00012	228.54015	1614.3938	-1099.92712	217.34494	1605.27075	-971.38269	221.05499	1455.27112	-1043.93848	178.57396	1127.72192	-1040.72571	329.6666	1375.76147	-1037.16724	365.96725	1200.38232	-1045.35547	141.12938	1286.47473	-970.11267	284.63412	1410.76843	-1200.30627	305.08978	1212.52112	-1280.39722	317.34399	1101.74194	-1299.87158	375.44711	963.32581	-1325.48669	455.13342	862.38416	-1281.24402	402.99176	847.0343	-1326.34619	462.87677	780.12213	-1327.96411	276.63297	1407.72278	-878.14618	218.86061	1211.50671	-796.92944	218.08118	1088.33337	-788.54614	223.51343	967.42908	-775.86194	268.95474	824.40472	-813.40558	216.95744	829.54944	-771.50629	247.22301	750.74091	-772.56146	357.31271	966.41351	-1145.8783	350.35355	969.84912	-925.9165	198.63153	995.93671	-1121.45789	198.22302	991.90979	-953.29382	278.16385	652.19568	-1198.93567	267.4632	488.13922	-1173.93518	219.78539	234.64395	-1152.06152	216.09866	64.18317	-1097.672	178.75432	51.94832	-1049.76648	361.55392	33.78602	-1101.37573	374.83817	649.92273	-853.79388	425.45844	533.87152	-867.82263	304.6763	304.36139	-877.13654	214.1772	143.55318	-924.49078	172.85732	134.01796	-973.94287	336.46545	53.38281	-910.57001	256.039	1705.46851	-1034.95972	NaN	NaN	NaN	NaN	NaN	NaN	NaN	NaN	NaN	NaN	NaN	NaN	NaN	NaN	NaN	NaN	NaN	NaN	NaN	NaN	NaN	NaN	NaN	NaN
117	1.16	369.91074	1666.37793	-1085.11914	357.23993	1652.67065	-954.1825	237.45239	1614.2334	-1100.28406	226.15549	1604.89417	-971.7262	229.90692	1455.0481	-1044.42517	187.23781	1127.53516	-1041.4032	338.59061	1375.51538	-1037.6593	374.87915	1200.11572	-1046.04443	149.99529	1286.21924	-971.00232	293.62399	1410.77515	-1200.73853	316.74902	1213.21191	-1281.34399	330.9924	1102.49841	-1301.15564	392.9321	966.03046	-1327.11121	475.70828	867.60199	-1282.63379	424.11697	850.57916	-1327.68066	485.96774	785.44757	-1329.11414	285.43423	1407.3728	-878.63129	225.91992	1211.70886	-797.59155	223.69647	1088.44482	-789.3548	228.06995	967.45184	-776.77954	271.17896	823.79877	-815.04688	220.12381	829.64722	-772.66559	248.85747	750.37433	-774.07202	365.65952	965.75671	-1147.04822	359.35968	969.72711	-926.70691	206.76758	995.51404	-1121.87134	206.99823	991.80988	-953.63397	285.38754	651.63019	-1198.89661	273.76776	487.57977	-1173.88208	223.08885	234.51334	-1151.98096	216.68373	64.30724	-1097.34534	178.65884	52.47926	-1049.43738	361.78516	33.69698	-1101.34021	386.08536	650.89435	-854.77374	436.76669	534.83838	-869.82782	324.29407	299.81509	-877.86584	242.11888	134.3409	-924.25208	200.8891	122.42266	-973.61469	368.9733	50.85231	-910.26782	264.86035	1705.27417	-1035.21289	NaN	NaN	NaN	NaN	NaN	NaN	NaN	NaN	NaN	NaN	NaN	NaN	NaN	NaN	NaN	NaN	NaN	NaN	NaN	NaN	NaN	NaN	NaN	NaN
118	1.17	378.83688	1666.13794	-1085.24841	366.04437	1652.27966	-954.33679	246.42409	1614.01318	-1100.61633	234.97891	1604.54272	-972.10547	238.83881	1454.75427	-1044.9176	196.07774	1127.22607	-1042.04297	347.49493	1375.19702	-1038.10071	383.75519	1199.76672	-1046.71069	158.92892	1285.79895	-971.81738	302.5795	1410.76062	-1201.172	328.09943	1213.77661	-1282.07849	344.15143	1103.28162	-1302.02551	409.63852	968.49799	-1328.09106	495.85257	873.02985	-1284.03271	444.76117	854.26556	-1328.80139	508.71646	791.09406	-1330.03442	294.29681	1406.90613	-879.10297	233.29149	1211.61646	-797.98218	229.78188	1088.48206	-789.99878	232.79123	967.40631	-777.63782	273.6918	823.16907	-816.59924	223.10207	829.76874	-773.30774	250.92888	749.94489	-775.43658	373.4769	964.88116	-1147.5332	368.40021	969.57709	-927.4082	215.04913	994.92859	-1122.22437	215.80219	991.54462	-953.9588	292.52612	650.95923	-1198.86243	280.28281	486.98138	-1173.77039	226.23715	234.49733	-1151.91016	217.26378	64.47192	-1097.09839	179.27232	52.73119	-1049.22021	361.99295	33.61828	-1101.30505	396.58664	651.42267	-855.91827	447.33359	535.33521	-871.71497	343.7081	295.06949	-878.4256	270.35962	125.17539	-923.84686	229.62097	110.95428	-973.06836	401.63071	48.75986	-909.74915	273.79471	1704.88989	-1035.39551	NaN	NaN	NaN	NaN	NaN	NaN	NaN	NaN	NaN	NaN	NaN	NaN	NaN	NaN	NaN	NaN	NaN	NaN	NaN	NaN	NaN	NaN	NaN	NaN
119	1.18	387.78622	1665.81421	-1085.24072	374.92105	1651.82019	-954.4295	255.34688	1613.66516	-1100.89294	243.77911	1604.04016	-972.37067	247.76512	1454.31042	-1045.28809	204.78796	1126.82678	-1042.5387	356.49673	1374.8103	-1038.51465	392.64444	1199.32727	-1047.31689	167.95076	1285.29382	-972.53217	311.53772	1410.5957	-1201.61414	338.97256	1214.12	-1282.94751	356.95169	1104.01416	-1303.16992	426.11407	971.07086	-1329.24109	515.65155	878.68561	-1285.1958	464.96835	858.0993	-1329.62769	531.04865	797.0174	-1330.83655	303.17453	1406.34656	-879.47412	240.59827	1211.6781	-798.38727	235.98845	1088.40955	-790.56964	237.70271	967.33167	-778.4126	276.5015	822.5531	-818.10834	226.98215	829.77576	-774.21454	253.28418	749.53046	-776.72876	381.92322	964.14856	-1148.46509	377.17377	969.17102	-928.01318	222.74449	994.26294	-1122.51782	224.51714	991.14471	-954.17834	300.00055	650.25269	-1198.72449	286.76514	486.3559	-1173.62317	229.35654	234.60664	-1151.89417	217.87141	64.6571	-1096.84668	179.42393	53.20665	-1048.92896	362.28909	33.72102	-1101.32971	406.55017	651.53998	-856.82501	457.14288	535.5058	-873.4859	363.21542	290.24371	-878.90466	299.15021	116.31687	-923.32434	259.09735	99.83346	-972.41901	434.23825	46.96347	-909.16766	282.61737	1704.5415	-1035.53271	NaN	NaN	NaN	NaN	NaN	NaN	NaN	NaN	NaN	NaN	NaN	NaN	NaN	NaN	NaN	NaN	NaN	NaN	NaN	NaN	NaN	NaN	NaN	NaN
120	1.19	396.69235	1665.40161	-1085.26489	383.73685	1651.16455	-954.49298	264.37244	1613.21838	-1101.06665	252.61667	1603.4873	-972.63947	256.83664	1453.92578	-1045.68359	213.51236	1126.34961	-1042.92627	365.51453	1374.28137	-1038.92395	401.50311	1198.72498	-1047.93506	176.79897	1284.95581	-973.07428	320.49237	1410.43103	-1202.03052	349.47546	1214.42114	-1283.78125	369.25186	1104.62561	-1304.31848	442.21655	973.66608	-1330.19348	534.90161	884.4118	-1286.15808	484.57544	861.90405	-1330.06372	552.77997	803.23779	-1331.56555	312.14322	1405.68469	-879.79211	247.77368	1211.62708	-798.97906	242.29863	1088.3064	-791.08521	242.44963	967.20587	-779.21375	279.64044	821.97076	-819.43835	230.40285	829.79736	-774.62451	256.08209	749.18286	-777.91351	390.28781	963.38568	-1149.05908	386.14944	968.72449	-928.53973	231.44278	993.60785	-1122.5957	233.34848	990.59961	-954.32233	307.50677	649.50153	-1198.44666	293.27936	485.70001	-1173.39282	232.33727	234.66481	-1151.92725	218.45709	64.90229	-1096.54773	179.57837	53.74568	-1048.58545	362.56305	33.66539	-1101.21301	415.90015	651.16681	-857.64258	466.37659	535.23303	-875.11212	382.64813	285.3819	-879.2514	328.33636	107.94072	-922.69489	289.32385	89.384	-971.84595	466.94107	45.52742	-908.60486	291.57208	1704.02808	-1035.62646	NaN	NaN	NaN	NaN	NaN	NaN	NaN	NaN	NaN	NaN	NaN	NaN	NaN	NaN	NaN	NaN	NaN	NaN	NaN	NaN	NaN	NaN	NaN	NaN
121	1.2	405.64291	1665.24902	-1085.09253	392.6409	1650.49536	-954.49316	273.35492	1612.65955	-1101.23535	261.48395	1602.73938	-972.77362	265.91385	1453.37781	-1045.96985	222.27505	1125.74414	-1043.23486	374.51862	1373.68774	-1039.22827	410.39661	1198.10742	-1048.47021	185.77409	1284.37695	-973.67249	329.51059	1410.15186	-1202.40015	359.89838	1214.46118	-1284.23303	381.6192	1105.13464	-1305.05798	457.94067	976.19055	-1330.94592	553.70319	890.23767	-1286.85254	503.71475	865.78607	-1330.27124	573.88678	809.47162	-1332.10571	321.18066	1404.94275	-880.10242	255.17339	1211.44531	-799.34076	248.76157	1088.15625	-791.58185	247.77924	967.03357	-779.81641	283.06686	821.33099	-820.65289	234.59656	829.82416	-775.1712	259.39661	748.75006	-778.83051	398.35895	962.50604	-1149.23242	395.11456	968.30627	-929.07672	239.4025	992.82269	-1122.74597	241.9243	990.01898	-954.24561	315.02768	648.70117	-1198.08069	299.86816	484.95288	-1172.95691	235.56065	234.55229	-1151.79456	219.13518	65.11322	-1096.26514	179.94011	54.28846	-1048.35864	362.88751	33.57659	-1101.05115	424.62457	650.40283	-858.33923	474.58951	534.57074	-876.73712	402.04733	280.67789	-879.53265	357.91302	100.13824	-921.98004	318.82983	79.84576	-970.21277	499.52267	44.46497	-908.08014	300.44925	1703.40784	-1035.64587	NaN	NaN	NaN	NaN	NaN	NaN	NaN	NaN	NaN	NaN	NaN	NaN	NaN	NaN	NaN	NaN	NaN	NaN	NaN	NaN	NaN	NaN	NaN	NaN
122	1.21	414.64133	1664.59778	-1085.0697	401.5079	1649.70874	-954.45355	282.38251	1611.96667	-1101.323	270.48373	1601.92029	-972.88452	275.02994	1452.68127	-1046.25134	231.02693	1125.05371	-1043.44397	383.5589	1372.9939	-1039.53125	419.3511	1197.4137	-1049.00562	194.78909	1283.6709	-974.20441	338.53055	1409.71045	-1202.62769	370.2565	1214.63806	-1285.08557	393.55911	1105.60779	-1305.9021	473.32309	978.67426	-1331.52539	571.97705	896.1723	-1287.51221	522.41864	869.6842	-1330.24341	594.43408	815.89038	-1332.47791	330.24509	1404.13794	-880.38068	262.69281	1211.23035	-799.7525	255.42995	1087.96545	-791.99512	253.30052	966.7818	-780.34167	286.84879	820.74316	-821.60565	238.90907	829.73657	-775.64001	262.4003	748.45392	-779.89783	407.17496	961.68689	-1149.81787	404.11035	967.73273	-929.35742	247.91624	991.88739	-1122.80188	250.86624	989.22284	-954.33722	322.64926	647.82147	-1197.69727	306.42496	484.20123	-1172.54187	238.88841	234.47009	-1151.54065	219.76463	65.36314	-1095.98022	180.34802	54.8535	-1048.11987	363.32413	33.6772	-1101.01843	432.63351	649.20795	-859.04053	482.6402	533.27197	-878.15625	421.31564	276.15533	-879.82379	387.64896	93.06374	-921.14703	350.35043	70.4692	-969.81946	532.0069	43.9463	-907.63245	309.38254	1702.69641	-1035.64941	NaN	NaN	NaN	NaN	NaN	NaN	NaN	NaN	NaN	NaN	NaN	NaN	NaN	NaN	NaN	NaN	NaN	NaN	NaN	NaN	NaN	NaN	NaN	NaN
123	1.22	423.63565	1663.91724	-1085.005	410.58038	1648.94373	-954.40009	291.40765	1611.21887	-1101.33557	279.47653	1601.02307	-972.96356	284.06079	1451.93555	-1046.43481	239.79286	1124.38135	-1043.62329	392.63635	1372.20703	-1039.74451	428.29425	1196.58972	-1049.43994	203.82582	1282.95288	-974.60602	347.59198	1409.36731	-1202.84546	380.46655	1214.67383	-1285.59473	405.48242	1105.98889	-1306.55798	488.3735	981.09924	-1331.86646	589.75061	902.08405	-1288.02881	540.70587	873.56165	-1329.93372	614.39648	822.3457	-1332.69702	339.33713	1403.25159	-880.57599	270.31	1210.97156	-800.1698	262.22668	1087.66858	-792.43616	259.10797	966.49884	-780.81891	291.05771	820.10291	-822.26691	243.65921	829.46649	-776.32513	266.00064	748.06934	-780.48346	415.84946	960.77191	-1150.11304	413.10648	967.09473	-929.64734	256.96402	991.00073	-1122.80554	259.80118	988.36603	-954.37024	330.15024	646.98462	-1197.39099	313.08618	483.42841	-1171.99939	242.10446	234.53645	-1151.31287	220.42244	65.75162	-1095.72961	180.8671	55.48623	-1047.88684	363.48218	33.40372	-1100.8562	440.09329	647.53882	-859.65967	490.10226	531.64551	-879.36774	440.42825	271.9086	-879.91089	417.52585	86.8056	-920.31305	380.81934	63.01918	-968.84357	564.30811	43.94024	-907.28552	318.38553	1701.88354	-1035.57092	NaN	NaN	NaN	NaN	NaN	NaN	NaN	NaN	NaN	NaN	NaN	NaN	NaN	NaN	NaN	NaN	NaN	NaN	NaN	NaN	NaN	NaN	NaN	NaN
